HIERARCHY
ROOT Haolin_V1:Solving:Hips
{
	OFFSET 0.000000 0.000000 0.000000
	CHANNELS 6 Xposition Yposition Zposition Xrotation Yrotation Zrotation
	JOINT Haolin_V1:Solving:Spine
	{
		OFFSET 0.000000 -12.731938 2.520517
		CHANNELS 6 Xposition Yposition Zposition Xrotation Yrotation Zrotation
		JOINT Haolin_V1:Solving:Spine1
		{
			OFFSET 0.000000 -8.486854 1.496462
			CHANNELS 6 Xposition Yposition Zposition Xrotation Yrotation Zrotation
			JOINT Haolin_V1:Solving:Spine2
			{
				OFFSET 0.000000 -8.584984 0.751091
				CHANNELS 6 Xposition Yposition Zposition Xrotation Yrotation Zrotation
				JOINT Haolin_V1:Solving:Spine3
				{
					OFFSET 0.000000 -8.617775 0.000000
					CHANNELS 6 Xposition Yposition Zposition Xrotation Yrotation Zrotation
					JOINT Haolin_V1:Solving:Neck
					{
						OFFSET 0.000000 -11.080002 -1.107998
						CHANNELS 6 Xposition Yposition Zposition Xrotation Yrotation Zrotation
						JOINT Haolin_V1:Solving:Neck1
						{
							OFFSET 0.000000 -8.314011 -0.727381
							CHANNELS 6 Xposition Yposition Zposition Xrotation Yrotation Zrotation
							JOINT Haolin_V1:Solving:Head
							{
								OFFSET 0.000000 -8.218975 -1.449226
								CHANNELS 6 Xposition Yposition Zposition Xrotation Yrotation Zrotation
								JOINT Haolin_V1:Solving:HeadEnd
								{
									OFFSET 0.000000 -9.728081 0.000002
									CHANNELS 6 Xposition Yposition Zposition Xrotation Yrotation Zrotation
									End Site
									{
										OFFSET 0.000000 -9.728081 0.000002
									}
								}
							}
						}
					}
					JOINT Haolin_V1:Solving:RightShoulder
					{
						OFFSET 0.000000 -7.914288 -5.288076
						CHANNELS 6 Xposition Yposition Zposition Xrotation Yrotation Zrotation
						JOINT Haolin_V1:Solving:RightArm
						{
							OFFSET -20.201836 -0.000008 0.000000
							CHANNELS 6 Xposition Yposition Zposition Xrotation Yrotation Zrotation
							JOINT Haolin_V1:Solving:RightForeArm
							{
								OFFSET -29.446457 -0.000008 0.000000
								CHANNELS 6 Xposition Yposition Zposition Xrotation Yrotation Zrotation
								JOINT Haolin_V1:Solving:RightHand
								{
									OFFSET -23.111885 -0.000008 0.000000
									CHANNELS 6 Xposition Yposition Zposition Xrotation Yrotation Zrotation
									JOINT Haolin_V1:Solving:RightHandThumb1
									{
										OFFSET -3.824379 2.925484 -2.843767
										CHANNELS 6 Xposition Yposition Zposition Xrotation Yrotation Zrotation
										End Site
										{
											OFFSET -5.557076 0.000000 -5.608460
										}
									}
									JOINT Haolin_V1:Solving:RightHandMiddle1
									{
										OFFSET -10.198334 -0.000004 0.065374
										CHANNELS 6 Xposition Yposition Zposition Xrotation Yrotation Zrotation
										End Site
										{
											OFFSET -7.895309 -0.000004 0.000000
										}
									}
								}
							}
						}
					}
					JOINT Haolin_V1:Solving:LeftShoulder
					{
						OFFSET 0.000000 -7.914288 -5.288076
						CHANNELS 6 Xposition Yposition Zposition Xrotation Yrotation Zrotation
						JOINT Haolin_V1:Solving:LeftArm
						{
							OFFSET 20.201836 -0.000008 0.000000
							CHANNELS 6 Xposition Yposition Zposition Xrotation Yrotation Zrotation
							JOINT Haolin_V1:Solving:LeftForeArm
							{
								OFFSET 29.446457 -0.000008 0.000000
								CHANNELS 6 Xposition Yposition Zposition Xrotation Yrotation Zrotation
								JOINT Haolin_V1:Solving:LeftHand
								{
									OFFSET 23.111885 -0.000008 0.000000
									CHANNELS 6 Xposition Yposition Zposition Xrotation Yrotation Zrotation
									JOINT Haolin_V1:Solving:LeftHandThumb1
									{
										OFFSET 3.824379 2.925484 -2.843767
										CHANNELS 6 Xposition Yposition Zposition Xrotation Yrotation Zrotation
										End Site
										{
											OFFSET 5.557076 0.000000 -5.608460
										}
									}
									JOINT Haolin_V1:Solving:LeftHandMiddle1
									{
										OFFSET 10.198334 -0.000004 0.065374
										CHANNELS 6 Xposition Yposition Zposition Xrotation Yrotation Zrotation
										End Site
										{
											OFFSET 7.895309 -0.000004 0.000000
										}
									}
								}
							}
						}
					}
				}
			}
		}
	}
	JOINT Haolin_V1:Solving:RightUpLeg
	{
		OFFSET -10.695510 0.000000 0.000000
		CHANNELS 6 Xposition Yposition Zposition Xrotation Yrotation Zrotation
		JOINT Haolin_V1:Solving:RightLeg
		{
			OFFSET 0.000000 46.236332 -0.000006
			CHANNELS 6 Xposition Yposition Zposition Xrotation Yrotation Zrotation
			JOINT Haolin_V1:Solving:RightFoot
			{
				OFFSET 0.000000 41.248135 -0.000006
				CHANNELS 6 Xposition Yposition Zposition Xrotation Yrotation Zrotation
				JOINT Haolin_V1:Solving:RightForeFoot
				{
					OFFSET 0.000000 3.207336 -0.000000
					CHANNELS 6 Xposition Yposition Zposition Xrotation Yrotation Zrotation
					JOINT Haolin_V1:Solving:RightToeBase
					{
						OFFSET 0.000000 0.000000 -12.560947
						CHANNELS 6 Xposition Yposition Zposition Xrotation Yrotation Zrotation
						JOINT Haolin_V1:Solving:RightToeBaseEnd
						{
							OFFSET 0.000000 0.000000 -3.517768
							CHANNELS 6 Xposition Yposition Zposition Xrotation Yrotation Zrotation
							End Site
							{
								OFFSET 0.000000 -3.517769 0.000004
							}
						}
					}
				}
			}
		}
	}
	JOINT Haolin_V1:Solving:LeftUpLeg
	{
		OFFSET 10.695510 0.000000 0.000000
		CHANNELS 6 Xposition Yposition Zposition Xrotation Yrotation Zrotation
		JOINT Haolin_V1:Solving:LeftLeg
		{
			OFFSET 0.000000 46.236332 -0.000006
			CHANNELS 6 Xposition Yposition Zposition Xrotation Yrotation Zrotation
			JOINT Haolin_V1:Solving:LeftFoot
			{
				OFFSET 0.000000 41.248135 -0.000006
				CHANNELS 6 Xposition Yposition Zposition Xrotation Yrotation Zrotation
				JOINT Haolin_V1:Solving:LeftForeFoot
				{
					OFFSET 0.000000 3.207336 -0.000000
					CHANNELS 6 Xposition Yposition Zposition Xrotation Yrotation Zrotation
					JOINT Haolin_V1:Solving:LeftToeBase
					{
						OFFSET 0.000000 0.000000 -12.560947
						CHANNELS 6 Xposition Yposition Zposition Xrotation Yrotation Zrotation
						JOINT Haolin_V1:Solving:LeftToeBaseEnd
						{
							OFFSET 0.000000 0.000000 -3.901837
							CHANNELS 6 Xposition Yposition Zposition Xrotation Yrotation Zrotation
							End Site
							{
								OFFSET 0.000000 -3.901840 0.000004
							}
						}
					}
				}
			}
		}
	}
}
MOTION
Frames: 4
Frame Time: 0.041667
-17.341467 -82.420158 -94.980331 82.736411 -9.691019 -1.742108 0.000001 -12.731952 2.520513 13.457133 0.900297 -0.080444 0.000000 -8.486873 1.496474 0.685913 -0.055625 0.610198 -0.000000 -8.584988 0.751069 -4.545038 2.498874 1.541610 0.000004 -8.617778 -0.000001 -3.086218 0.267755 2.747575 -0.000006 -11.079972 -1.108015 1.437073 3.354221 -0.218804 -0.000001 -8.313990 -0.727391 3.043516 1.489896 -1.263747 0.000003 -8.218956 -1.449220 11.792319 0.239900 -2.071033 0.000004 -9.728073 0.000003 -0.000003 -0.000000 -0.000000 -0.000005 -7.914284 -5.288085 -0.000000 11.417619 15.002990 -20.201847 0.000003 0.000009 -30.003283 -54.262455 -105.284176 -29.446426 -0.000024 0.000001 -773.570997 -71.099237 -772.041745 -23.111864 -0.000010 0.000027 -4.717082 5.105080 42.839763 -3.824357 2.925479 -2.843760 0.000004 -0.000003 -0.000001 -10.198319 -0.000008 0.065377 0.000001 -0.000003 -0.000001 -0.000004 -7.914299 -5.288085 0.000001 -5.082575 -11.423493 20.201822 -0.000004 -0.000017 -27.299943 24.986195 104.876585 29.446455 -0.000019 -0.000012 -173.434581 -54.104845 5.326578 23.111864 -0.000016 -0.000011 5.471075 -3.172318 -120.019838 3.824363 2.925487 -2.843767 0.000007 -0.000003 -0.000000 10.198312 0.000010 0.065384 0.000001 -0.000001 0.000001 -10.695514 -0.000016 -0.000020 -2.782049 3.823240 2.875496 -0.000005 46.236343 -0.000004 9.548619 0.000000 0.000001 0.000007 41.248123 -0.000016 0.550091 -6.561982 -5.299771 -0.000001 3.207336 0.000007 0.000000 -0.000001 -0.000000 0.000004 -0.000001 -12.560956 9.738292 -0.000000 0.000001 -0.000004 0.000000 -3.517775 0.000001 -0.000001 -0.000000 10.695509 -0.000019 -0.000012 5.433602 -17.033629 3.843925 0.000007 46.236332 -0.000011 9.837150 -0.000001 0.000001 -0.000004 41.248146 0.000003 -8.210487 -12.840592 -8.940947 0.000009 3.207336 0.000003 -0.000000 0.000006 0.000000 0.000016 0.000001 -12.560938 15.713412 0.000003 0.000002 0.000008 0.000015 -3.901823 -0.000003 0.000006 -0.000001 
-17.315422 -82.437981 -94.965797 82.776128 -9.742134 -1.746228 -0.000001 -12.731936 2.520505 13.309014 0.988605 -0.138355 0.000002 -8.486863 1.496467 0.698564 -0.046804 0.620644 0.000003 -8.584986 0.751088 -4.470141 2.532772 1.555267 0.000000 -8.617776 -0.000003 -2.965477 0.308909 2.839444 -0.000003 -11.079995 -1.108029 1.333858 3.269051 -0.271862 0.000002 -8.314028 -0.727382 3.029581 1.568294 -1.255081 0.000004 -8.219002 -1.449222 11.808872 0.245795 -2.092409 0.000000 -9.728096 0.000006 -0.000001 0.000000 0.000000 -0.000001 -7.914246 -5.288103 -0.000006 11.204954 14.842220 -20.201826 0.000001 -0.000001 -30.647264 -54.056320 -105.895157 -29.446451 -0.000018 0.000013 -772.927265 -68.688603 -770.957657 -23.111885 -0.000013 0.000003 -5.237567 5.786298 42.277983 -3.824367 2.925482 -2.843755 -0.000000 -0.000000 -0.000004 -10.198329 -0.000011 0.065359 -0.000002 0.000000 -0.000003 -0.000003 -7.914276 -5.288104 -0.000004 -5.136420 -11.424637 20.201826 -0.000051 -0.000004 -27.587385 25.249901 104.948568 29.446438 -0.000014 -0.000002 -172.370588 -53.629990 6.155974 23.111872 -0.000017 -0.000014 5.316914 -3.110911 -120.249210 3.824398 2.925479 -2.843743 0.000006 0.000009 0.000005 10.198331 -0.000011 0.065397 -0.000002 0.000003 0.000005 -10.695503 -0.000000 -0.000006 -2.873827 3.911184 2.914413 -0.000003 46.236343 0.000000 9.644052 -0.000000 0.000001 -0.000005 41.248135 -0.000006 0.463882 -6.606415 -5.356046 0.000003 3.207329 0.000004 -0.000000 0.000002 0.000000 -0.000004 -0.000003 -12.560946 9.793586 0.000000 -0.000000 0.000002 -0.000000 -3.517771 -0.000001 -0.000002 -0.000000 10.695509 -0.000007 -0.000011 5.333206 -16.910162 3.862099 0.000000 46.236343 -0.000031 9.932202 0.000003 0.000001 -0.000003 41.248150 -0.000014 -8.275290 -12.926496 -8.957066 -0.000000 3.207336 0.000006 -0.000000 0.000001 0.000000 0.000003 0.000004 -12.560961 15.655811 -0.000002 0.000002 -0.000005 -0.000008 -3.901828 0.000000 0.000003 -0.000001 
-17.308971 -82.454552 -94.951027 82.801168 -9.661972 -1.724764 0.000001 -12.731964 2.520497 13.286578 0.907459 -0.110580 0.000001 -8.486853 1.496458 0.693435 -0.054750 0.618794 0.000005 -8.584976 0.751117 -4.475310 2.499572 1.552190 -0.000003 -8.617775 0.000007 -2.976806 0.251227 2.788365 -0.000000 -11.080003 -1.107962 1.345426 3.419068 -0.249289 0.000003 -8.313976 -0.727366 3.057455 1.657694 -1.247047 0.000001 -8.218977 -1.449233 11.816039 0.251279 -2.094461 0.000004 -9.728081 0.000005 0.000004 0.000000 -0.000000 -0.000001 -7.914284 -5.288032 -0.000002 11.205806 14.470444 -20.201847 -0.000009 -0.000013 -30.888899 -53.740082 -106.052265 -29.446484 -0.000006 0.000004 -773.503515 -65.552037 -770.897770 -23.111874 -0.000005 0.000008 -4.588155 5.258853 41.203700 -3.824378 2.925491 -2.843753 0.000004 0.000002 0.000002 -10.198309 0.000002 0.065375 -0.000001 -0.000002 0.000002 -0.000001 -7.914276 -5.288033 0.000001 -5.090650 -11.448603 20.201828 -0.000023 0.000000 -31.397891 46.093856 108.555058 29.446453 -0.000018 -0.000002 -188.096306 -53.924128 -6.558791 23.111864 -0.000014 -0.000005 4.788319 -1.579363 -108.214252 3.824393 2.925473 -2.843754 0.000007 -0.000002 -0.000002 10.198327 -0.000011 0.065392 0.000003 0.000001 0.000001 -10.695509 -0.000008 -0.000013 -2.988542 3.768894 2.895308 -0.000002 46.236332 -0.000025 9.803858 -0.000000 0.000001 -0.000006 41.248131 -0.000001 0.409836 -6.537439 -5.331420 -0.000002 3.207336 0.000010 -0.000000 -0.000000 -0.000000 -0.000003 -0.000009 -12.560939 9.819796 -0.000002 0.000001 -0.000003 0.000007 -3.517766 -0.000000 -0.000003 0.000001 10.695507 -0.000013 -0.000014 5.280315 -16.987980 3.852883 0.000004 46.236336 -0.000011 9.983822 0.000003 -0.000001 -0.000004 41.248142 -0.000002 -8.356367 -12.951037 -8.992443 -0.000010 3.207329 -0.000010 -0.000000 0.000001 0.000001 -0.000000 0.000006 -12.560956 15.720778 -0.000007 0.000002 0.000002 -0.000007 -3.901834 0.000002 0.000008 -0.000002 
-17.309265 -82.458817 -94.941673 82.779407 -9.578598 -1.720770 0.000004 -12.731944 2.520554 13.302278 0.835383 -0.092031 0.000000 -8.486863 1.496447 0.696695 -0.056452 0.619300 0.000001 -8.584979 0.751100 -4.470962 2.515586 1.554139 -0.000002 -8.617770 -0.000019 -2.987978 0.264469 2.784704 0.000004 -11.079999 -1.108007 1.334398 3.440766 -0.235633 0.000004 -8.314030 -0.727383 3.072379 1.741141 -1.252739 -0.000001 -8.219007 -1.449222 11.832858 0.257028 -2.096441 -0.000001 -9.728096 -0.000007 0.000002 0.000000 0.000000 -0.000006 -7.914307 -5.288092 -0.000004 11.105503 14.141122 -20.201853 -0.000007 -0.000004 -31.175261 -53.235693 -106.306376 -29.446468 -0.000024 -0.000025 -773.786558 -62.628088 -770.492002 -23.111870 -0.000022 -0.000003 -4.074246 4.903431 39.804488 -3.824387 2.925476 -2.843762 0.000002 0.000003 -0.000000 -10.198336 -0.000012 0.065370 -0.000000 -0.000001 -0.000002 -0.000002 -7.914288 -5.288092 -0.000001 -4.727898 -10.717246 20.201820 -0.000008 -0.000004 -31.548005 37.682973 108.273040 29.446451 -0.000015 0.000002 -172.093091 -54.523539 6.452750 23.111876 -0.000006 -0.000015 5.132032 -0.027415 -90.306726 3.824383 2.925487 -2.843765 0.000005 0.000000 -0.000005 10.198335 -0.000001 0.065381 -0.000001 0.000001 0.000002 -10.695514 -0.000001 0.000013 -3.027476 3.639586 2.880820 0.000006 46.236355 -0.000015 9.914838 0.000001 0.000001 -0.000005 41.248150 0.000005 0.369300 -6.486920 -5.326664 -0.000001 3.207329 0.000003 -0.000000 -0.000000 0.000000 -0.000008 -0.000001 -12.560951 9.837137 -0.000002 -0.000000 -0.000001 -0.000007 -3.517766 0.000001 -0.000003 0.000000 10.695517 -0.000017 0.000036 5.291076 -17.100842 3.845412 0.000001 46.236328 -0.000024 10.029985 0.000004 0.000000 -0.000012 41.248135 -0.000026 -8.404309 -12.921360 -8.977271 -0.000004 3.207336 0.000011 -0.000000 -0.000002 0.000000 0.000018 -0.000004 -12.560936 15.721234 -0.000005 -0.000002 -0.000001 0.000001 -3.901839 0.000002 -0.000002 -0.000000 
